<?xml version="1.0" encoding="UTF-8"?>
<svg xmlns="http://www.w3.org/2000/svg" viewBox="0 0 49 54">
  <defs>
    <style>
      .cls-1 {
        stroke-width: 3px;
      }

      .cls-1, .cls-2 {
        fill: #fff;
        stroke: #000;
        stroke-miterlimit: 10;
      }
    </style>
  </defs>
  <g id="Layer_1" data-name="Layer 1">
    <g>
      <line class="cls-2" x1="7" y1="29" x2="47" y2="29"/>
      <line class="cls-2" x1="7" y1="35" x2="47" y2="35"/>
      <line class="cls-2" x1="7" y1="41" x2="47" y2="41"/>
      <line class="cls-2" x1="7" y1="23" x2="47" y2="23"/>
      <line class="cls-2" x1="7" y1="17" x2="47" y2="17"/>
    </g>
  </g>
  <g id="Layer_2" data-name="Layer 2">
    <line class="cls-1" x1="45.5" y1="41" x2="45.5" y2="17"/>
  </g>
  <g id="Layer_3" data-name="Layer 3">
    <path d="M10.37,35.99c-.67-.37-.91-1.12-.81-1.86.11-.82.66-1.43,1.42-1.72,1.66-.65,3.54.15,4.59,1.49.94,1.21,1.37,2.96.69,4.39-.84,1.75-2.92,2.72-4.65,3.34-1.83.66-4.02,1-5.73-.17-1.35-.93-2.04-2.59-2.19-4.18-.37-4,2.45-7.33,4.46-10.5,2.26-3.56,4.09-7.4,5.45-11.39.68-1.99,1.24-4.03,1.68-6.09.39-1.86.65-3.96-.62-5.56-.46-.59-1.24-1.22-2.04-1.12-.96.12-1.11,1.28-1.3,2.04-.52,2.11-.73,4.28-.8,6.45-.13,4.61.19,9.24.39,13.85s.41,9.53.45,14.3c.02,2.22.08,4.46-.08,6.67-.04.58-.15,1.11-.36,1.65-.11.28-.78,2.22-.98,2.21s-.5-1.18-.56-1.38c-.16-.57-.26-1.14-.3-1.73-.04-.64-1.04-.64-1,0,.06.95.93,5.67,2.64,3.69.53-.61.79-1.6,1.09-2.35.23-.57.37-1.13.43-1.74.25-2.35.13-4.79.1-7.15-.02-2.57-.1-5.14-.19-7.71-.19-5.22-.46-10.43-.62-15.65-.07-2.4-.11-4.82.12-7.21.12-1.22.31-2.44.61-3.63.07-.3.15-.6.24-.89.12-.37.31-.46.68-.28.46.23.81.71,1.03,1.15.56,1.13.41,2.46.18,3.66-.22,1.13-.5,2.26-.8,3.37-.62,2.28-1.39,4.51-2.31,6.68s-1.93,4.16-3.09,6.13-2.53,3.8-3.66,5.78c-1.81,3.15-2.89,7.32-.51,10.5,2.61,3.49,7.56,2.15,10.71.18,1.54-.97,2.76-2.4,2.84-4.29.07-1.65-.71-3.33-1.93-4.41s-3.17-1.68-4.83-1.12-2.57,2.08-2.2,3.75c.16.72.6,1.34,1.25,1.7.56.31,1.07-.55.5-.86h0Z"/>
  </g>
</svg>